<?xml version="1.0" standalone="no"?>
<!DOCTYPE svg PUBLIC "-//W3C//DTD SVG 20010904//EN"
 "http://www.w3.org/TR/2001/REC-SVG-20010904/DTD/svg10.dtd">
<svg version="1.0" xmlns="http://www.w3.org/2000/svg"
 width="305.000000pt" height="499.000000pt" viewBox="0 0 305.000000 499.000000"
 preserveAspectRatio="xMidYMid meet">

<g transform="translate(0.000000,499.000000) scale(0.100000,-0.100000)"
fill="#000000" stroke="none">
<path d="M10 3850 c0 -998 2 -1130 15 -1130 8 0 15 -5 15 -11 0 -5 4 -7 10 -4
5 3 10 0 10 -7 0 -10 2 -10 9 1 7 11 9 11 14 0 3 -10 7 -8 12 6 3 11 10 27 14
35 5 9 0 21 -13 32 -18 15 -18 17 -4 18 9 0 23 -7 31 -15 9 -8 40 -18 70 -21
39 -5 54 -10 50 -19 -8 -22 -53 -27 -79 -10 -19 12 -25 13 -28 3 -8 -27 -54
-488 -55 -550 -1 -27 -1 -27 -36 -12 l-35 14 0 -1085 0 -1085 1515 0 1515 0 0
2485 0 2485 -1515 0 -1515 0 0 -1130z m640 940 c0 -18 39 -31 59 -20 14 7 22
7 27 -2 4 -6 2 -14 -5 -16 -8 -3 -9 -8 -1 -17 9 -10 0 -13 -45 -14 -52 0 -55
1 -55 24 0 14 -4 25 -10 25 -5 0 -10 -11 -10 -25 0 -18 -5 -25 -20 -25 -17 0
-19 5 -14 25 4 15 2 25 -5 25 -26 0 -8 19 22 23 17 2 38 5 45 5 6 1 12 -2 12
-8z m960 2 c0 -13 40 -33 52 -26 6 4 35 8 63 9 50 1 52 1 51 -26 l-1 -27 -92
0 -93 0 0 39 c0 21 5 39 10 39 6 0 10 -3 10 -8z m391 -13 c4 -7 15 -9 24 -5
10 3 24 1 31 -5 11 -9 17 -9 28 0 22 18 41 4 41 -32 0 -26 -4 -33 -24 -35 -13
-2 -27 1 -30 7 -4 6 -58 11 -134 12 -102 1 -127 4 -127 16 0 8 -5 11 -12 7 -7
-4 -3 4 9 17 17 17 26 20 34 12 7 -7 20 -8 34 -3 13 5 26 6 29 3 3 -4 6 1 6
11 0 14 7 16 42 12 23 -3 45 -11 49 -17z m-1172 -13 c19 -35 3 -55 -20 -25
-10 13 -19 30 -19 37 0 21 26 13 39 -12z m31 20 c0 -11 -19 -15 -25 -6 -3 5 1
10 9 10 9 0 16 -2 16 -4z m210 -33 c-16 -35 -46 -46 -37 -14 2 10 0 25 -4 34
-7 12 -3 15 24 14 l33 -1 -16 -33z m159 27 c13 -6 17 -17 13 -35 -4 -21 -9
-26 -31 -23 -18 2 -25 8 -23 20 3 21 -23 15 -32 -7 -6 -16 -78 -15 -83 1 -2 7
3 19 12 28 12 12 21 13 35 6 12 -6 21 -6 25 -1 3 5 17 8 30 5 14 -2 25 0 25 6
0 13 6 13 29 0z m141 0 c0 -7 16 -9 40 -7 22 2 43 0 46 -4 3 -5 14 -5 24 1 13
7 21 7 25 0 4 -7 12 -7 24 0 23 12 29 6 23 -25 -3 -17 -11 -25 -24 -25 -14 0
-18 5 -14 15 3 8 1 15 -5 15 -5 0 -12 -6 -15 -14 -4 -9 -23 -13 -65 -13 -44 1
-58 4 -55 14 3 7 1 15 -4 18 -6 4 -10 -3 -10 -14 0 -12 -6 -21 -14 -21 -11 0
-13 7 -6 29 6 23 5 29 -5 25 -8 -3 -15 -15 -17 -27 -2 -12 -11 -23 -21 -25
-15 -3 -16 0 -7 23 13 33 13 38 0 30 -5 -3 -10 -1 -10 4 0 6 20 11 45 11 25 0
45 -5 45 -10z m960 -5 c0 -12 4 -13 18 -7 9 5 32 7 50 5 20 -3 32 -1 32 6 0 6
6 11 14 11 10 0 14 -11 13 -35 -1 -32 -3 -35 -33 -35 -19 0 -34 6 -38 15 -3 8
-11 15 -17 15 -9 0 -9 -4 0 -14 14 -17 1 -28 -18 -17 -7 5 -22 6 -32 4 -13 -4
-19 0 -19 11 0 9 -4 16 -10 16 -5 0 -10 -7 -10 -15 0 -8 -7 -15 -15 -15 -8 0
-15 7 -15 15 0 8 -5 15 -11 15 -6 0 -9 -6 -6 -14 4 -11 -4 -14 -35 -13 -31 2
-42 6 -44 19 -3 25 4 28 84 30 39 2 68 6 65 10 -2 5 3 8 11 8 9 0 16 -7 16
-15z m-1344 -7 c3 -3 -3 -16 -13 -27 -20 -24 -63 -28 -63 -6 0 8 -5 15 -10 15
-6 0 -13 -7 -16 -15 -4 -8 -12 -15 -20 -15 -18 0 -18 37 0 47 17 9 113 10 122
1z m-192 -33 c3 -9 0 -15 -9 -15 -9 0 -12 6 -9 15 4 8 7 15 9 15 2 0 5 -7 9
-15z m396 -152 c-8 -3 -18 -10 -21 -15 -3 -5 -14 -5 -24 -2 -18 7 -18 8 1 15
10 4 28 8 39 8 14 -1 16 -2 5 -6z m-140 -33 c0 -5 -4 -10 -10 -10 -5 0 -10 -8
-10 -17 0 -13 -3 -14 -12 -5 -8 8 -8 15 2 27 14 17 30 20 30 5z m-120 -40
c-18 -11 -24 -6 -16 16 5 14 9 15 19 5 9 -9 9 -14 -3 -21z m133 -1 c-5 -19 -3
-21 24 -15 26 6 32 2 56 -30 27 -38 27 -54 1 -54 -8 0 -14 7 -12 17 2 10 -5
19 -19 22 -13 3 -32 14 -43 24 -12 10 -25 15 -31 12 -5 -4 -4 5 3 19 14 31 28
34 21 5z m-63 -20 c0 -5 -4 -9 -10 -9 -5 0 -10 7 -10 16 0 8 5 12 10 9 6 -3
10 -10 10 -16z m1045 11 c-3 -5 -10 -10 -16 -10 -5 0 -9 5 -9 10 0 6 7 10 16
10 8 0 12 -4 9 -10z m-385 -25 c0 -12 17 -15 83 -17 45 0 89 -1 97 0 8 0 49 2
90 3 41 1 80 6 87 11 8 7 27 0 58 -22 25 -17 45 -33 45 -35 0 -8 -118 -125
-126 -125 -4 0 -3 5 4 12 20 20 14 27 -28 34 -22 4 -37 10 -34 15 3 5 -2 9
-10 9 -22 0 -36 31 -24 53 7 14 16 17 35 12 16 -4 22 -2 18 5 -9 15 -51 12
-66 -6 -11 -14 -13 -14 -21 0 -15 27 -24 18 -23 -24 0 -42 4 -47 21 -30 8 8
15 6 24 -5 12 -14 6 -16 -61 -13 l-74 3 -3 35 c-2 19 -7 39 -12 44 -14 14 -24
-45 -11 -65 15 -25 14 -29 -9 -29 -11 0 -20 -7 -20 -15 0 -8 -4 -15 -10 -15
-5 0 -10 4 -10 9 0 5 -9 13 -20 16 -17 5 -20 15 -20 71 0 44 -4 64 -12 64 -9
0 -8 4 2 10 21 14 30 12 30 -5z m548 -12 c5 -17 -26 -29 -40 -15 -6 6 -7 15
-3 22 9 14 37 9 43 -7z m-1268 -25 l12 -33 10 28 c12 32 30 36 24 5 -13 -62
-16 -127 -6 -133 25 -15 -3 -64 -37 -65 -23 0 -14 19 12 26 29 7 31 16 8 39
-13 14 -14 21 -5 36 7 10 12 29 12 41 -1 22 -2 22 -25 -7 -14 -16 -25 -38 -25
-47 0 -9 -5 -20 -11 -23 -21 -14 -19 4 6 48 28 52 31 61 12 54 -7 -3 -22 2
-32 10 -19 15 -18 15 9 9 l29 -7 -17 25 c-13 21 -14 26 -2 26 8 0 19 -15 26
-32z m328 20 c-3 -7 -15 -15 -28 -18 -45 -11 -53 -64 -11 -78 10 -3 10 0 0 16
-14 23 -6 52 16 52 9 0 15 -9 15 -24 0 -13 3 -31 6 -40 10 -27 -58 -21 -85 7
-19 21 -20 25 -6 37 18 15 20 40 3 41 -17 2 41 16 70 18 15 1 22 -4 20 -11z
m340 -3 c7 -3 12 -24 12 -59 0 -48 -2 -54 -19 -49 -16 4 -18 10 -11 34 10 34
4 59 -14 59 -8 0 -11 -11 -8 -30 6 -39 -14 -39 -36 0 -23 41 -37 37 -37 -10
-1 -43 8 -51 24 -23 9 17 11 16 30 -1 31 -28 11 -35 -75 -29 -68 5 -73 3 -84
-18 -11 -20 -10 -25 11 -42 l24 -20 -25 8 c-14 4 -26 11 -28 14 -1 4 -19 5
-39 3 -26 -3 -34 -1 -28 8 4 6 -1 29 -10 51 -14 30 -16 44 -7 62 11 22 11 22
11 -5 1 -15 6 -30 11 -33 6 -3 10 -15 10 -26 0 -10 4 -19 8 -19 11 0 9 31 -3
49 -5 9 -2 18 10 27 18 14 40 9 30 -6 -3 -4 -7 -25 -10 -46 l-4 -39 20 24 c11
13 18 30 15 38 -7 16 6 17 23 1 11 -11 13 -10 8 5 -4 10 -2 27 3 38 12 21 1
26 -18 7 -9 -9 -12 -9 -12 -1 0 16 13 23 62 32 40 7 128 4 156 -4z m-901 -31
l38 -8 -30 -7 c-58 -13 -75 -10 -75 12 0 14 5 19 14 16 8 -3 32 -9 53 -13z
m427 -48 c14 3 27 -1 35 -10 12 -14 9 -16 -22 -16 -27 0 -37 -5 -42 -20 -3
-11 -11 -20 -17 -20 -6 0 -7 7 -2 18 4 9 10 40 13 67 5 48 6 48 9 12 3 -33 6
-36 26 -31z m1013 58 c-3 -3 -12 -4 -19 -1 -8 3 -5 6 6 6 11 1 17 -2 13 -5z
m-1087 -89 c-8 -10 -8 -19 0 -34 9 -18 8 -21 -10 -21 -12 0 -19 4 -16 9 9 14
-4 41 -20 41 -8 0 -14 5 -14 10 0 6 5 10 10 10 6 0 10 7 10 15 0 8 -4 15 -10
15 -5 0 -10 7 -10 15 0 29 19 14 26 -20 7 -37 21 -46 31 -19 3 9 0 20 -7 24
-11 7 -11 12 1 26 13 16 14 14 17 -20 2 -21 -2 -44 -8 -51z m1271 75 c16 0 29
-4 29 -10 0 -11 -92 -13 -130 -3 -24 7 -23 8 10 14 19 3 41 5 48 3 8 -2 27 -4
43 -4z m-181 -40 c0 -11 -7 -20 -15 -20 -15 0 -21 21 -8 33 12 13 23 7 23 -13z
m84 -15 c11 -8 18 -17 15 -19 -2 -2 -15 4 -28 15 -27 22 -15 26 13 4z m-365
-62 c28 -25 41 -53 25 -53 -8 0 -74 67 -74 75 0 12 20 3 49 -22z m-269 -3
c-11 -20 -30 -28 -30 -12 0 11 22 32 32 32 5 0 4 -9 -2 -20z m180 5 c0 -15
-48 -40 -58 -30 -3 3 -1 5 4 5 6 0 19 7 30 15 18 13 18 14 -6 9 -20 -5 -22 -3
-10 5 22 15 40 13 40 -4z m194 -11 c9 -24 7 -28 -9 -14 -17 14 -20 30 -6 30 5
0 12 -7 15 -16z m95 -5 c12 -12 20 -23 17 -26 -7 -8 -56 25 -56 37 0 16 14 12
39 -11z m-1129 -5 c0 -8 -4 -12 -10 -9 -5 3 -10 10 -10 16 0 5 5 9 10 9 6 0
10 -7 10 -16z m760 -24 c0 -5 -4 -10 -10 -10 -5 0 -10 5 -10 10 0 6 5 10 10
10 6 0 10 -4 10 -10z m-1370 -353 c0 -4 -7 -10 -15 -13 -8 -4 -15 -16 -15 -28
-1 -27 82 -316 90 -316 7 0 60 182 60 206 0 9 -7 40 -16 70 -11 39 -23 58 -42
69 -15 8 -25 15 -22 15 28 4 162 2 167 -3 3 -4 2 -7 -3 -7 -6 0 -18 -6 -28
-13 -17 -12 -15 -22 28 -172 45 -155 52 -173 60 -164 11 12 86 309 80 322 -3
8 -12 18 -20 21 -30 12 -12 21 41 21 56 0 69 -11 36 -32 -12 -7 -26 -42 -40
-95 -37 -139 -102 -382 -107 -400 -8 -27 -21 -22 -27 10 -12 69 -82 301 -88
295 -4 -5 -23 -71 -44 -148 -20 -77 -39 -148 -42 -157 -9 -35 -20 -17 -43 75
-70 278 -110 402 -135 423 -14 11 -24 22 -21 25 8 7 146 4 146 -4z m1316 3
l154 0 0 -65 c0 -70 -14 -87 -24 -30 -8 43 -42 68 -88 63 l-33 -3 2 -145 c1
-80 2 -184 2 -233 1 -84 2 -88 26 -97 14 -5 25 -13 25 -17 0 -8 -169 -7 -177
1 -2 2 10 8 26 14 l31 11 0 235 0 236 -33 0 c-45 0 -75 -24 -83 -65 -11 -61
-24 -49 -24 23 0 72 5 86 28 77 7 -3 83 -5 168 -5z m-296 -100 c0 -5 -4 -10
-10 -10 -5 0 -10 5 -10 10 0 6 5 10 10 10 6 0 10 -4 10 -10z m-550 -93 c0 -20
107 -308 118 -319 6 -6 18 -8 26 -5 23 9 24 315 1 323 -34 13 -11 20 63 19 87
-2 125 -16 141 -52 23 -49 9 -92 -39 -122 l-29 -17 45 -65 c24 -35 54 -72 65
-81 21 -18 21 -18 -17 -18 -38 0 -41 3 -89 80 -27 43 -56 79 -62 80 -9 0 -13
-20 -13 -70 0 -64 2 -71 23 -79 15 -6 -11 -10 -86 -12 -60 -2 -111 -2 -113 0
-2 2 4 9 13 16 15 11 15 15 1 51 -16 39 -16 39 -75 42 l-60 3 -12 -42 c-11
-38 -11 -44 3 -55 14 -10 11 -12 -21 -17 -21 -2 -42 0 -47 4 -6 6 -6 9 2 9 17
0 29 27 83 184 27 78 52 147 54 154 6 15 25 7 25 -11z m1016 4 c-14 -15 -12
-27 17 -119 18 -56 35 -102 39 -102 3 0 16 29 28 65 19 56 20 70 9 102 -6 21
-18 42 -25 46 -29 17 -12 27 44 27 49 -1 55 -2 40 -14 -10 -7 -18 -19 -18 -26
0 -26 63 -211 70 -203 3 4 19 53 34 108 24 89 26 101 12 111 -9 6 -16 13 -16
16 0 3 63 6 140 6 l139 1 82 -122 c44 -67 83 -122 86 -122 3 0 5 47 4 105 -2
94 -4 107 -23 121 -21 16 -20 17 30 17 55 0 61 -4 37 -22 -11 -9 -15 -46 -17
-178 -2 -93 -5 -168 -8 -168 -3 0 -45 63 -95 140 -49 77 -93 140 -97 140 -5 0
-8 -54 -8 -119 0 -110 2 -121 21 -134 11 -8 17 -17 12 -18 -4 -2 -57 -2 -118
2 -60 3 -102 6 -93 7 10 1 21 10 26 20 9 17 7 276 -3 300 -7 19 -43 14 -55 -8
-12 -23 -90 -279 -90 -297 0 -17 -19 -27 -25 -11 -2 7 -16 52 -31 101 -14 48
-29 87 -33 87 -3 0 -19 -45 -35 -100 -16 -55 -32 -102 -35 -105 -4 -2 -25 58
-46 133 -43 152 -60 198 -75 207 -22 14 -8 21 41 22 46 1 49 -1 35 -16z m928
-21 c8 -49 7 -70 -3 -70 -5 0 -11 13 -14 30 -12 60 -99 80 -113 26 -8 -34 7
-57 67 -102 85 -65 103 -131 50 -185 -32 -31 -75 -38 -113 -18 -16 8 -22 8
-29 -2 -12 -19 -16 -11 -22 51 -6 46 -5 52 6 36 33 -51 60 -76 83 -76 29 0 64
33 64 59 0 24 -38 70 -84 102 -67 45 -81 116 -33 167 18 19 30 22 78 20 57 -3
57 -3 63 -38z m-1378 -76 c16 -24 16 -26 -4 -47 -18 -17 -26 -19 -49 -11 -33
11 -41 44 -18 68 24 23 52 20 71 -10z m72 19 c-21 -5 -23 -14 -6 -31 9 -9 9
-12 0 -12 -7 0 -12 -9 -12 -20 0 -11 -4 -20 -10 -20 -5 0 -10 20 -10 45 0 43
1 45 28 44 16 -1 20 -3 10 -6z m-140 -110 c-13 -3 -18 -15 -18 -39 0 -19 -4
-34 -10 -34 -5 0 -10 13 -10 28 0 15 -5 33 -12 40 -9 9 -3 12 28 11 21 -1 31
-3 22 -6z m67 -23 c4 0 14 8 21 18 12 15 13 11 13 -33 0 -40 -2 -45 -9 -27
-10 24 -40 30 -40 8 0 -8 -4 -18 -10 -21 -6 -4 -10 12 -10 42 1 42 2 46 14 31
7 -10 17 -18 21 -18z m125 20 c0 -5 -7 -7 -15 -4 -10 4 -15 0 -15 -11 0 -9 5
-13 10 -10 6 3 10 1 10 -4 0 -6 -4 -11 -10 -11 -5 0 -10 -4 -10 -10 0 -5 7
-10 15 -10 8 0 15 -4 15 -10 0 -5 -11 -10 -25 -10 -23 0 -25 4 -25 45 0 41 2
45 25 45 14 0 25 -4 25 -10z m311 -184 c3 -3 42 -6 87 -7 56 -1 85 -6 93 -15
6 -8 18 -14 26 -14 12 0 13 -3 3 -14 -13 -17 -116 -12 -137 6 -10 8 -13 3 -13
-21 0 -21 4 -30 11 -25 6 3 15 0 20 -7 7 -11 10 -9 15 9 7 25 24 30 24 7 0
-18 31 -20 47 -4 9 9 11 7 7 -8 -3 -12 -1 -24 5 -27 6 -4 11 -3 11 3 0 6 8 8
18 4 16 -6 16 -5 0 14 -26 28 -22 38 6 19 24 -15 25 -15 28 7 2 13 11 23 23
25 19 3 19 2 3 -11 -10 -8 -18 -19 -18 -26 0 -12 23 -14 135 -13 78 1 101 -7
92 -32 -5 -12 -11 -14 -24 -8 -11 6 -62 4 -138 -6 -66 -8 -136 -14 -155 -14
-107 3 -124 1 -132 -10 -6 -10 -8 -8 -8 4 0 17 -17 34 -26 25 -6 -6 46 -104
63 -118 23 -19 39 4 25 35 -10 22 -9 24 5 19 12 -5 14 -3 8 7 -5 9 -4 11 3 6
7 -4 9 -19 5 -36 -4 -23 -2 -30 11 -30 9 0 16 -5 16 -11 0 -7 -9 -9 -21 -6
-17 5 -18 3 -7 -11 7 -9 28 -30 46 -46 30 -28 32 -34 23 -59 -6 -15 -15 -27
-20 -27 -10 0 -44 -60 -38 -67 2 -1 14 8 27 22 13 14 28 25 32 25 13 0 38 26
38 39 0 18 44 41 68 34 12 -3 22 -9 22 -14 0 -15 -79 -67 -111 -74 -25 -6 -30
-11 -28 -33 2 -25 -8 -58 -32 -104 -14 -27 -11 -42 16 -89 14 -24 25 -50 25
-57 0 -16 14 -30 53 -55 15 -10 27 -23 27 -29 0 -6 -8 -4 -18 5 -23 21 -39 22
-22 2 7 -8 10 -15 8 -15 -12 0 -46 38 -64 70 -10 19 -20 37 -22 40 -2 2 -7 -2
-12 -10 -7 -11 -10 -12 -10 -2 0 7 -4 10 -10 7 -5 -3 -10 -15 -10 -26 0 -10
-5 -19 -11 -19 -7 0 -9 11 -6 30 5 22 1 36 -17 55 -24 26 -36 24 -36 -7 0 -11
7 -18 20 -18 21 0 27 -15 10 -25 -16 -10 -12 -111 5 -125 8 -7 15 -21 15 -31
0 -11 6 -19 13 -19 8 0 14 -8 14 -17 0 -10 -6 -24 -14 -31 -7 -7 -13 -25 -13
-40 l1 -27 24 30 c14 17 25 36 25 43 0 23 21 12 31 -18 6 -16 16 -30 22 -30 7
0 3 -8 -9 -18 -44 -37 -72 -142 -38 -142 12 0 6 -11 -19 -39 -19 -21 -38 -48
-42 -60 -10 -33 -28 -25 -49 22 -11 23 -37 63 -58 88 -21 26 -38 53 -38 62 0
8 -18 49 -40 91 -42 81 -49 106 -26 106 8 0 24 9 37 21 24 20 24 20 2 14 -26
-7 -66 11 -60 28 2 6 14 14 27 17 13 3 26 12 28 19 4 11 -6 13 -43 8 -45 -5
-52 -2 -99 35 -98 78 -98 77 -98 308 0 111 3 204 7 208 3 4 11 -1 16 -11 6 -9
14 -15 20 -12 5 4 9 -3 9 -14 0 -11 -4 -23 -10 -26 -17 -10 -11 -34 8 -33 9 0
25 -3 34 -6 11 -5 20 -1 28 13 6 12 19 21 29 21 30 0 33 28 6 46 -14 9 -22 21
-18 28 4 6 -1 5 -10 -2 -9 -8 -21 -10 -28 -6 -8 5 -3 12 15 21 27 14 35 46 14
59 -7 4 -8 3 -4 -4 4 -7 1 -12 -7 -12 -10 0 -13 7 -10 20 3 11 11 20 18 20 7
0 15 7 18 14 5 13 10 13 35 1 51 -26 61 -46 77 -156 21 -143 24 -143 18 1 -2
69 -9 134 -14 146 -15 30 -7 99 11 99 27 1 40 16 40 45 0 15 3 37 7 47 5 14 9
8 18 -24 5 -23 12 -44 16 -47z m-1246 -7 c-8 -12 -56 -32 -62 -25 -5 4 45 33
60 35 5 1 5 -4 2 -10z m-467 -6 c-10 -2 -26 -2 -35 0 -10 3 -2 5 17 5 19 0 27
-2 18 -5z m155 -48 l43 -45 63 25 c35 15 65 24 68 21 6 -6 -20 -20 -84 -45
l-50 -20 -34 35 c-35 36 -81 64 -106 64 -8 0 -11 5 -7 11 13 21 65 -1 107 -46z
m2373 23 c4 -4 -1 -10 -10 -14 -9 -3 -16 -17 -16 -30 0 -27 19 -33 21 -6 1 15
2 15 6 0 3 -13 16 -16 64 -15 55 2 64 7 60 32 -1 6 6 2 15 -7 17 -17 17 -18
-1 -32 -16 -12 -18 -17 -7 -27 21 -22 14 -66 -14 -88 -15 -12 -32 -21 -39 -21
-16 0 -30 33 -16 38 18 6 14 72 -4 72 -11 0 -15 -9 -13 -30 2 -33 -30 -64 -68
-66 -12 -1 -26 -4 -33 -8 -6 -4 -18 -1 -26 8 -20 20 -19 26 5 26 14 0 20 7 21
23 l2 22 4 -22 c7 -39 56 -30 62 12 1 5 -36 11 -81 13 -57 2 -85 8 -91 17 -9
17 -38 8 -31 -10 4 -9 -2 -11 -20 -8 -14 3 -26 12 -26 19 0 8 -5 14 -11 14 -6
0 -9 -9 -6 -20 3 -11 1 -20 -3 -20 -5 0 -12 9 -15 20 -6 18 -17 24 -37 21 -5
0 -8 6 -8 14 0 11 7 14 24 9 18 -4 25 -1 29 17 4 14 1 27 -6 31 -8 5 -4 8 11
8 18 0 22 -6 22 -30 0 -35 9 -38 88 -26 13 2 22 -2 22 -10 0 -19 49 -18 56 1
4 8 10 12 15 9 5 -3 9 -1 9 5 0 5 3 17 7 27 4 12 2 15 -8 12 -16 -6 -52 10
-45 20 5 9 82 9 92 0z m114 -9 c0 -5 -7 -9 -15 -9 -15 0 -20 12 -9 23 8 8 24
-1 24 -14z m-2260 1 c-8 -5 -22 -9 -30 -9 -10 0 -8 3 5 9 27 12 43 12 25 0z
m1667 -7 c3 -7 -4 -9 -16 -6 -12 3 -18 9 -15 15 7 11 26 6 31 -9z m48 7 c-3
-5 -11 -10 -16 -10 -6 0 -7 5 -4 10 3 6 11 10 16 10 6 0 7 -4 4 -10z m265 -4
c0 -7 -7 -19 -15 -26 -13 -11 -15 -8 -15 14 0 16 5 26 15 26 8 0 15 -6 15 -14z
m215 4 c-3 -5 -11 -10 -16 -10 -6 0 -7 5 -4 10 3 6 11 10 16 10 6 0 7 -4 4
-10z m-360 -30 c3 -5 1 -10 -4 -10 -6 0 -11 5 -11 10 0 6 2 10 4 10 3 0 8 -4
11 -10z m-2105 -15 c19 -23 8 -26 -20 -5 -19 15 -21 20 -9 20 9 0 22 -7 29
-15z m2180 -116 c0 -5 -4 -9 -8 -9 -5 0 -9 7 -9 15 0 8 4 12 9 9 4 -3 8 -9 8
-15z m130 -2 c0 -2 -9 -12 -19 -21 -19 -17 -20 -17 -31 3 -10 19 -8 21 20 21
16 0 30 -2 30 -3z m-289 -54 c-8 -15 -10 -15 -11 -2 0 17 10 32 18 25 2 -3 -1
-13 -7 -23z m-686 7 c3 -5 1 -10 -4 -10 -6 0 -11 5 -11 10 0 6 2 10 4 10 3 0
8 -4 11 -10z m-1425 -120 c0 -5 -2 -10 -4 -10 -3 0 -8 5 -11 10 -3 6 -1 10 4
10 6 0 11 -4 11 -10z m40 -20 c8 -5 12 -11 9 -14 -3 -3 -14 1 -25 9 -21 16 -8
20 16 5z m2740 0 c0 -5 -4 -10 -10 -10 -5 0 -10 5 -10 10 0 6 5 10 10 10 6 0
10 -4 10 -10z m-2200 -82 c0 -19 -18 -43 -25 -36 -9 9 4 48 16 48 5 0 9 -6 9
-12z m315 -18 c-3 -5 -13 -10 -21 -10 -8 0 -12 5 -9 10 3 6 13 10 21 10 8 0
12 -4 9 -10z m-182 -20 c-4 -16 4 -24 41 -41 39 -17 45 -23 35 -35 -10 -13
-15 -12 -38 2 -56 36 -71 55 -58 75 15 25 26 24 20 -1z m120 13 c-7 -2 -21 -2
-30 0 -10 3 -4 5 12 5 17 0 24 -2 18 -5z m-5 -27 c25 -1 29 -11 7 -20 -23 -9
-72 4 -90 24 -16 17 -15 18 22 8 21 -6 48 -11 61 -12z m-491 -16 c3 -11 13
-20 23 -20 11 0 20 -9 22 -21 2 -12 11 -27 20 -33 14 -8 21 -6 32 9 21 30 33
9 13 -24 -23 -40 -21 -68 6 -82 33 -17 87 -80 87 -101 0 -10 7 -21 15 -24 21
-8 19 -24 -3 -24 -13 0 -23 13 -32 41 -8 23 -28 52 -47 67 -19 15 -47 40 -64
56 -39 36 -129 47 -99 11 17 -20 -4 -28 -53 -19 -23 4 -46 7 -50 6 -4 -1 -10
5 -13 13 -4 8 -14 15 -23 16 -9 0 -4 6 13 13 33 15 62 11 70 -10 7 -19 36 -18
36 1 0 14 -12 20 -33 16 -4 -1 -10 6 -13 14 -4 8 -12 15 -20 15 -8 0 -14 6
-14 13 0 8 12 14 30 14 16 0 31 -6 34 -14 3 -7 12 -13 21 -13 8 0 15 -4 15
-10 0 -5 5 -10 11 -10 8 0 8 4 0 14 -9 10 -9 16 -1 21 7 4 14 -2 17 -14 5 -20
23 -30 23 -12 0 16 -30 80 -40 86 -13 8 -13 25 1 25 6 0 13 -9 16 -20z m406
-57 c27 -9 20 -19 -29 -43 -57 -26 -77 -15 -52 28 13 21 14 32 6 47 -10 17 -8
17 23 -4 19 -12 42 -25 52 -28z m-325 10 c-4 -22 -22 -20 -26 1 -2 10 3 16 13
16 10 0 15 -7 13 -17z m862 7 c0 -5 -7 -10 -15 -10 -8 0 -15 5 -15 10 0 6 7
10 15 10 8 0 15 -4 15 -10z m620 -10 c0 -11 -7 -20 -15 -20 -18 0 -19 6 -2 25
16 19 17 18 17 -5z m-1720 -45 c-7 -8 -24 -15 -38 -15 -31 0 -18 16 18 23 14
2 27 5 29 6 2 0 -2 -6 -9 -14z m1121 -51 c16 -19 1 -37 -27 -31 -27 5 -28 3
-14 -24 6 -11 7 -19 2 -19 -15 0 -34 70 -25 91 4 10 52 -2 64 -17z m-756 5
c12 -19 -5 -23 -22 -6 -16 16 -16 17 -1 17 9 0 20 -5 23 -11z m-155 -35 c0 -8
-9 -14 -20 -14 -21 0 -24 8 -14 34 5 13 9 14 20 5 8 -6 14 -18 14 -25z m920
-79 c-6 -19 -16 -35 -22 -35 -6 0 -8 -9 -5 -19 6 -24 -19 -36 -28 -13 -4 10 2
22 16 33 18 13 20 19 10 37 -9 18 -7 25 11 42 19 18 24 19 26 6 2 -9 -2 -32
-8 -51z m-890 40 c0 -8 5 -15 10 -15 13 0 13 -40 0 -60 -7 -11 -10 -6 -10 22
0 20 -4 40 -10 43 -5 3 -10 10 -10 16 0 5 5 9 10 9 6 0 10 -7 10 -15z m797
-27 c-3 -7 -5 -2 -5 12 0 14 2 19 5 13 2 -7 2 -19 0 -25z m-543 -3 c3 -8 1
-15 -3 -15 -5 0 -11 7 -15 15 -3 8 -1 15 3 15 5 0 11 -7 15 -15z m1138 -33 c3
-10 0 -26 -7 -35 -10 -14 -14 -15 -23 -4 -14 16 -4 57 13 57 7 0 15 -8 17 -18z
m-1072 -64 c0 -4 -4 -9 -10 -13 -10 -6 -34 28 -45 65 -6 23 -4 22 24 -10 16
-19 30 -38 31 -42z m620 42 c-8 -5 -19 -10 -25 -10 -5 0 -3 5 5 10 8 5 20 10
25 10 6 0 3 -5 -5 -10z m915 -48 c-6 -6 -65 38 -65 49 0 5 16 -3 35 -18 19
-15 32 -29 30 -31z m-96 2 c2 -2 -5 -4 -16 -4 -12 0 -23 7 -27 15 -5 13 -2 14
17 4 12 -6 24 -13 26 -15z m-1606 -47 c3 -26 2 -47 0 -47 -18 0 -43 25 -43 42
0 19 29 63 36 55 2 -2 5 -24 7 -50z m127 18 c18 -21 13 -145 -5 -145 -6 0 -9
24 -7 56 2 43 -2 63 -19 91 -21 34 -21 35 -2 25 11 -6 26 -18 33 -27z m767 20
c32 -23 19 -49 -20 -41 -36 7 -57 23 -57 42 0 19 50 18 77 -1z m638 5 c3 -5 1
-10 -4 -10 -6 0 -11 5 -11 10 0 6 2 10 4 10 3 0 8 -4 11 -10z m-1486 -62 c1
-10 -6 -18 -14 -18 -16 0 -18 12 -8 49 6 23 7 23 14 5 4 -10 8 -27 8 -36z
m1301 -3 c-29 -31 -40 -32 -40 -2 0 18 6 22 31 24 l32 2 -23 -24z m425 7 c-3
-3 -11 0 -18 7 -9 10 -8 11 6 5 10 -3 15 -9 12 -12z m-818 -7 c8 -9 13 -19 10
-22 -6 -5 -37 21 -37 31 0 10 11 6 27 -9z m-147 -5 c0 -5 -15 -10 -32 -10 -25
0 -29 3 -18 10 20 13 50 13 50 0z m-877 -24 c3 4 22 -3 42 -15 20 -11 43 -21
51 -21 8 0 14 -5 14 -10 0 -23 -140 34 -148 60 -4 12 -1 11 15 -3 11 -9 22
-14 26 -11z m1617 -1 c0 -20 40 -91 72 -125 28 -32 36 -46 18 -35 -13 8 -13
-7 0 -41 15 -37 8 -39 -29 -8 -38 32 -71 93 -71 132 0 15 -5 33 -11 39 -12 12
-1 65 12 57 5 -3 9 -11 9 -19z m-1320 -2 c0 -3 -14 -28 -32 -56 -17 -27 -37
-72 -44 -100 -10 -41 -12 -45 -13 -22 -1 33 29 123 54 161 14 22 35 33 35 17z
m555 -48 c42 -42 51 -55 37 -55 -11 0 -23 -7 -26 -16 -4 -10 -1 -14 6 -12 7 3
22 -14 34 -36 25 -47 48 -56 64 -27 18 34 25 24 25 -34 0 -55 -7 -64 -35 -44
-11 8 -12 12 -2 16 24 10 11 23 -23 23 -29 0 -37 5 -45 25 -11 29 -24 34 -15
5 8 -24 -11 -60 -30 -60 -8 0 -15 5 -15 10 0 17 -38 11 -45 -7 -6 -16 -8 -16
-25 5 -11 13 -24 21 -29 17 -6 -3 -2 -14 10 -26 11 -11 17 -25 13 -30 -4 -6
-9 -7 -13 -3 -3 5 -18 15 -33 23 -23 12 -28 23 -38 95 -7 44 -11 89 -9 100 3
15 109 85 131 86 3 0 32 -25 63 -55z m121 31 c19 -20 20 -53 0 -37 -14 11 -29
51 -19 51 2 0 11 -6 19 -14z m-1125 -38 c-17 -17 -31 -28 -31 -23 0 12 52 66
58 60 3 -2 -9 -19 -27 -37z m1587 25 c-32 -71 -50 -103 -58 -103 -14 0 -13 5
15 46 14 20 25 43 25 50 0 8 5 14 11 14 6 0 9 -3 7 -7z m-978 -66 c0 -32 -29
-57 -67 -57 -32 0 -43 12 -23 25 6 3 10 15 10 26 0 11 4 18 9 15 4 -3 16 3 26
14 21 23 45 11 45 -23z m1520 22 c0 -5 -4 -9 -10 -9 -5 0 -10 7 -10 16 0 8 5
12 10 9 6 -3 10 -10 10 -16z m-1962 -50 c27 -27 32 -38 32 -81 0 -61 -12 -84
-47 -91 -15 -3 -43 -19 -62 -35 -30 -25 -34 -34 -34 -74 1 -25 7 -56 13 -68
12 -22 11 -22 -16 -16 -31 8 -94 52 -94 65 0 19 -98 102 -159 136 -82 45 -133
85 -109 85 9 0 24 -10 32 -22 12 -17 18 -20 28 -10 7 7 20 12 29 12 11 0 20
11 24 30 5 23 12 30 31 30 14 0 24 6 24 14 0 12 7 12 44 1 l44 -13 6 29 c7 37
23 37 31 1 3 -15 14 -33 25 -40 18 -11 20 -10 20 18 0 25 6 34 33 45 49 21 70
18 105 -16z m1014 -61 c-9 -9 -12 -7 -12 12 0 19 3 21 12 12 9 -9 9 -15 0 -24z
m726 -13 c0 -19 -4 -35 -9 -35 -5 0 -9 3 -10 8 0 4 -2 19 -4 35 -2 18 1 27 10
27 8 0 13 -13 13 -35z m-656 13 c4 -10 -18 -68 -25 -68 -2 0 -1 18 1 40 4 39
16 53 24 28z m-642 -27 c7 -15 6 -23 -6 -35 -21 -22 -22 -21 -22 19 0 39 12
45 28 16z m735 -21 c0 -18 -33 -26 -47 -12 -6 6 -7 15 -3 22 10 16 50 8 50
-10z m458 5 c4 -8 2 -17 -3 -20 -18 -11 -10 -26 9 -20 28 8 34 -9 11 -30 -17
-15 -22 -16 -36 -4 -13 11 -12 5 5 -28 11 -23 21 -49 21 -58 0 -8 5 -15 10
-15 6 0 10 -16 10 -35 0 -19 5 -35 10 -35 6 0 10 7 10 15 0 9 7 18 15 21 8 4
15 14 15 24 0 21 55 80 74 80 8 0 25 9 40 21 16 13 26 16 26 8 0 -21 -32 -49
-55 -49 -12 0 -32 -11 -45 -25 -13 -14 -19 -25 -13 -25 6 0 16 7 23 15 7 8 16
15 21 15 17 0 9 -30 -8 -30 -29 -1 -63 -36 -63 -64 0 -18 -5 -26 -17 -26 -32
0 -45 16 -54 64 -6 32 -20 58 -44 84 -42 44 -43 53 -10 88 14 15 25 31 25 35
0 15 17 10 23 -6z m-1333 -18 c-1 -17 -29 -52 -36 -44 -10 9 17 68 27 61 5 -3
9 -11 9 -17z m1522 1 c-7 -7 -12 -8 -12 -2 0 6 3 14 7 17 3 4 9 5 12 2 2 -3
-1 -11 -7 -17z m-45 -4 c-3 -3 -12 -4 -19 -1 -8 3 -5 6 6 6 11 1 17 -2 13 -5z
m-977 -26 c0 -16 -3 -19 -11 -11 -6 6 -8 16 -5 22 11 17 16 13 16 -11z m-374
-55 c-6 -14 -9 -13 -32 2 -30 20 -40 15 -25 -13 18 -34 12 -37 -15 -7 -29 32
-25 55 10 55 14 0 28 5 31 11 10 15 38 -28 31 -48z m413 38 c7 -5 11 -15 9
-22 -5 -14 37 -98 55 -110 16 -11 -2 -27 -23 -22 -12 3 -19 8 -16 10 7 8 -24
91 -40 104 -15 12 -20 49 -6 49 4 0 13 -4 21 -9z m-33 -59 c19 -18 34 -37 34
-41 0 -5 -17 -11 -37 -14 -21 -3 -47 -8 -58 -13 l-20 -7 20 23 20 23 -25 -8
c-14 -4 -38 -17 -53 -27 -34 -24 -39 -21 -31 21 7 36 29 50 47 32 22 -22 40
-13 34 19 -5 22 -2 32 11 39 12 7 18 6 21 -2 2 -7 19 -27 37 -45z m500 -19
c-12 -24 -15 -26 -21 -10 -4 10 0 28 11 45 15 22 19 24 22 10 2 -9 -3 -29 -12
-45z m361 30 c-15 -16 -17 -16 -17 -1 0 9 6 18 13 21 20 7 22 -2 4 -20z m-707
-83 c0 -5 -4 -10 -10 -10 -5 0 -10 5 -10 10 0 6 5 10 10 10 6 0 10 -4 10 -10z
m-275 -30 c-21 -24 -35 -26 -35 -6 0 8 10 17 23 19 12 2 24 5 26 6 2 0 -4 -8
-14 -19z m160 10 c-3 -5 -10 -10 -16 -10 -5 0 -9 5 -9 10 0 6 7 10 16 10 8 0
12 -4 9 -10z m961 -2 c-3 -7 -9 -21 -12 -30 -4 -10 -15 -18 -26 -18 -12 0 -17
4 -12 13 20 33 64 64 50 35z m-330 -34 c-5 -14 -9 -15 -19 -5 -9 9 -9 14 3 21
18 11 24 6 16 -16z m-576 -17 c0 -5 -4 -5 -10 -2 -5 3 -10 14 -10 23 0 15 2
15 10 2 5 -8 10 -19 10 -23z m410 3 c0 -5 -5 -10 -11 -10 -5 0 -7 5 -4 10 3 6
8 10 11 10 2 0 4 -4 4 -10z m205 -40 c3 -5 2 -10 -4 -10 -5 0 -13 5 -16 10 -3
6 -2 10 4 10 5 0 13 -4 16 -10z m-135 -10 c0 -5 -5 -10 -11 -10 -6 0 -9 -7 -5
-15 7 -18 -5 -20 -22 -3 -20 20 -14 38 13 38 14 0 25 -4 25 -10z m189 -11 c17
-6 31 -15 31 -21 0 -5 10 -8 23 -7 12 2 28 0 35 -4 7 -5 23 0 38 12 28 22 54
28 54 12 0 -5 -16 -19 -35 -31 -39 -24 -44 -36 -17 -43 15 -3 15 -5 -3 -11
-11 -4 -29 -12 -39 -18 -15 -8 -22 -6 -33 8 -7 10 -13 23 -13 30 0 7 -19 28
-42 48 -47 39 -47 41 1 25z m-932 -14 c8 -9 13 -18 11 -21 -3 -2 -13 5 -23 16
-21 23 -11 27 12 5z m597 -17 c-16 -18 -30 -35 -31 -37 -2 -2 -6 -2 -9 2 -7 7
49 67 62 67 4 0 -5 -15 -22 -32z m-280 -28 l7 -25 -15 25 c-17 28 -21 50 -7
35 5 -6 12 -21 15 -35z m236 -34 c0 -3 -4 -8 -10 -11 -5 -3 -10 -1 -10 4 0 6
5 11 10 11 6 0 10 -2 10 -4z m960 -21 c0 -8 -4 -15 -10 -15 -5 0 -7 7 -4 15 4
8 8 15 10 15 2 0 4 -7 4 -15z m-960 -34 c-11 -22 1 -61 20 -61 6 0 10 -5 10
-11 0 -7 -10 -9 -24 -7 -16 3 -23 1 -19 -8 2 -6 -1 -15 -6 -19 -13 -7 -5 -25
11 -25 5 0 8 7 4 15 -7 20 41 32 57 15 9 -10 7 -11 -11 -5 -12 3 -21 3 -20 -2
2 -5 -7 -19 -19 -32 -20 -22 -22 -22 -31 -4 -18 35 -22 72 -11 100 6 15 13 37
15 47 4 22 27 40 32 26 2 -5 -2 -18 -8 -29z m-190 -16 c0 -5 -5 -3 -10 5 -5 8
-10 20 -10 25 0 6 5 3 10 -5 5 -8 10 -19 10 -25z m705 6 c-2 -5 -18 -14 -35
-21 -23 -10 -29 -17 -25 -31 8 -25 -1 -24 -15 1 -8 15 -6 24 9 39 27 27 82 36
66 12z m95 -11 c0 -5 -13 -10 -30 -10 -16 0 -30 5 -30 10 0 6 14 10 30 10 17
0 30 -4 30 -10z m67 -6 c-3 -3 -12 -4 -19 -1 -8 3 -5 6 6 6 11 1 17 -2 13 -5z
m-267 -54 c-8 -5 -24 -9 -35 -9 -16 1 -16 2 5 9 35 11 48 11 30 0z m172 -30
c-31 -26 -82 -45 -82 -31 1 18 40 51 70 59 48 12 51 5 12 -28z m-242 20 c0 -5
-7 -10 -15 -10 -8 0 -15 5 -15 10 0 6 7 10 15 10 8 0 15 -4 15 -10z m-256 -39
c3 -4 -6 -13 -20 -20 -34 -15 -36 -14 -24 9 11 21 35 27 44 11z m266 -15 c0
-7 -12 -16 -27 -19 -34 -6 -40 -2 -23 18 16 19 50 20 50 1z m-1460 -30 c0 -8
-4 -18 -10 -21 -5 -3 -10 -4 -10 -1 0 2 -3 11 -6 20 -4 11 -1 16 10 16 9 0 16
-6 16 -14z m1720 4 c-20 -13 -33 -13 -25 0 3 6 14 10 23 10 15 0 15 -2 2 -10z
m-1875 -19 c3 -5 1 -12 -5 -16 -5 -3 -10 1 -10 9 0 18 6 21 15 7z m1770 -20
c-3 -6 -11 -11 -17 -11 -6 0 -6 6 2 15 14 17 26 13 15 -4z m-2025 -1 c0 -5 -2
-10 -4 -10 -3 0 -8 5 -11 10 -3 6 -1 10 4 10 6 0 11 -4 11 -10z m-109 -37 l24
-26 -32 23 c-34 25 -39 30 -25 30 5 0 19 -12 33 -27z m349 -4 c-12 -22 -30
-25 -30 -6 0 17 21 38 32 31 4 -3 3 -14 -2 -25z m1260 21 c0 -5 -5 -10 -11
-10 -5 0 -7 5 -4 10 3 6 8 10 11 10 2 0 4 -4 4 -10z m275 -10 c4 -6 -5 -10
-20 -10 -15 0 -24 4 -20 10 3 6 12 10 20 10 8 0 17 -4 20 -10z m100 -8 c-3 -3
-11 0 -18 7 -9 10 -8 11 6 5 10 -3 15 -9 12 -12z m219 -7 c-1 -5 -21 -17 -45
-26 -24 -9 -52 -19 -62 -24 -16 -7 -37 0 -26 8 50 42 136 69 133 42z m-2232
-25 c18 -16 28 -30 21 -30 -7 0 -26 14 -43 30 -40 39 -20 39 22 0z m1683 -10
c-16 -18 -37 -55 -82 -144 -13 -26 -26 -46 -29 -43 -3 3 2 17 11 31 29 44 1
29 -55 -29 -29 -31 -55 -54 -58 -51 -8 9 75 112 118 147 22 18 43 41 46 53 9
27 46 66 57 59 5 -3 1 -13 -8 -23z m235 9 c0 -11 -3 -11 -24 -3 -23 9 -20 23
4 17 11 -3 20 -9 20 -14z m77 15 c-3 -3 -12 -4 -19 -1 -8 3 -5 6 6 6 11 1 17
-2 13 -5z m-1677 -33 c-13 -25 -30 -36 -30 -20 0 6 8 18 18 25 23 18 24 17 12
-5z m713 -30 c14 -6 28 -19 32 -30 3 -12 13 -21 22 -21 12 0 13 -3 4 -14 -13
-16 -6 -42 15 -50 8 -3 14 -10 14 -16 0 -14 -27 -13 -33 3 -3 9 -9 7 -23 -5
-17 -17 -17 -18 7 -26 17 -7 30 -5 44 4 26 19 32 18 38 -6 4 -15 0 -20 -14
-20 -10 0 -19 -6 -19 -14 0 -14 -64 -42 -120 -51 -35 -6 -35 -6 -10 9 14 8 33
15 43 16 10 0 17 8 17 20 0 18 -3 19 -20 10 -21 -11 -120 -8 -139 5 -18 11
-12 25 10 25 33 0 16 25 -17 26 -16 0 -48 4 -71 8 -27 5 -49 3 -63 -4 -28 -15
-55 4 -30 21 11 8 12 12 3 16 -19 7 -16 20 6 26 11 3 28 -1 39 -9 11 -7 32
-13 48 -13 70 0 109 -7 109 -21 0 -8 9 -16 19 -18 14 -3 17 0 12 13 -3 9 -6
21 -6 26 0 5 -9 9 -20 9 -11 0 -20 3 -20 8 0 4 9 15 20 25 11 9 20 23 20 31 0
8 12 17 28 19 15 2 28 5 29 6 1 0 13 -3 26 -8z m-598 -31 c-3 -5 -11 -10 -16
-10 -6 0 -7 5 -4 10 3 6 11 10 16 10 6 0 7 -4 4 -10z m1555 -9 c0 -9 -61 -31
-88 -31 -12 0 -22 -4 -22 -10 0 -5 -7 -10 -15 -10 -8 0 -14 4 -12 9 3 11 -5
12 -42 5 -36 -7 -101 -82 -82 -94 10 -5 9 -9 -2 -13 -30 -11 -28 26 4 74 46
66 73 80 158 77 39 -1 74 1 77 5 8 7 24 -1 24 -12z m-1370 4 c0 -4 -6 -19 -14
-34 -13 -24 -20 -28 -60 -27 -25 1 -47 -3 -49 -8 -2 -5 -25 -9 -53 -9 -30 0
-56 -6 -67 -15 -9 -8 -20 -12 -25 -8 -15 16 109 83 178 97 45 9 90 11 90 4z
m70 -53 c0 -13 -29 -48 -30 -35 0 6 5 15 10 18 6 4 8 11 5 16 -4 5 -1 9 4 9 6
0 11 -4 11 -8z m467 -7 c0 -8 -6 -15 -14 -15 -17 0 -17 17 0 23 6 3 12 6 13 6
0 1 1 -6 1 -14z m897 -19 c16 -26 4 -48 -16 -28 -7 7 -32 -1 -76 -24 -37 -18
-76 -34 -86 -34 -26 0 -66 -39 -66 -64 -1 -23 -32 -66 -49 -66 -12 0 -13 6 -5
38 4 12 12 22 19 22 7 0 15 7 19 15 6 17 -15 20 -31 4 -7 -7 -15 -2 -27 15
-16 25 -16 26 8 26 14 0 28 5 31 10 3 6 17 10 31 10 13 0 24 3 24 8 0 10 76
39 123 47 21 3 46 14 55 25 23 25 27 24 46 -4z m-204 1 c0 -7 -20 -23 -45 -35
-37 -18 -45 -19 -45 -6 0 11 53 44 88 53 1 1 2 -5 2 -12z m-611 -11 c9 -11 8
-15 -6 -19 -10 -2 -26 -8 -35 -12 -14 -5 -18 -2 -18 13 0 31 39 42 59 18z
m-389 -55 c0 -5 -26 -12 -57 -16 -142 -14 -133 -15 -121 4 9 14 27 18 94 20
48 1 84 -2 84 -8z m390 5 c0 -3 -4 -8 -10 -11 -5 -3 -10 -1 -10 4 0 6 5 11 10
11 6 0 10 -2 10 -4z m830 -48 c0 -4 -16 -8 -35 -8 -36 0 -43 8 -24 27 12 12
59 -3 59 -19z m-490 -4 c0 -8 -8 -14 -18 -14 -10 0 -29 -11 -42 -25 -13 -14
-31 -25 -41 -25 -9 0 -34 -7 -55 -16 l-39 -16 19 21 c28 31 13 36 -35 13 -32
-16 -46 -18 -64 -10 -13 6 -21 16 -19 22 7 18 72 39 119 38 22 -1 68 7 100 17
64 19 75 18 75 -5z m-395 6 c-3 -5 -11 -10 -16 -10 -6 0 -7 5 -4 10 3 6 11 10
16 10 6 0 7 -4 4 -10z m785 -9 c0 -8 -52 -31 -71 -31 -18 0 -8 21 14 30 29 12
57 12 57 1z m-1105 -11 c-3 -5 -11 -10 -16 -10 -6 0 -7 5 -4 10 3 6 11 10 16
10 6 0 7 -4 4 -10z m987 -22 c-7 -7 -12 -8 -12 -2 0 14 12 26 19 19 2 -3 -1
-11 -7 -17z m-272 -13 c0 -16 -6 -25 -15 -25 -18 0 -20 21 -3 38 17 17 18 16
18 -13z m-330 -3 c0 -20 -51 -52 -115 -72 -22 -7 -64 -26 -92 -42 -29 -17 -53
-28 -53 -25 0 3 34 28 76 56 49 32 88 51 106 51 19 0 28 4 26 12 -3 7 5 18 16
24 30 17 36 16 36 -4z m294 -31 c3 -5 -1 -12 -10 -15 -20 -8 -29 -1 -19 13 8
13 22 14 29 2z m-40 -26 c10 -10 25 -14 43 -10 18 4 12 -2 -17 -14 -59 -26
-73 -26 -65 -1 8 24 -16 28 -35 5 -7 -8 -18 -15 -24 -15 -18 0 47 49 66 50 9
0 23 -7 32 -15z m-151 -19 c-5 -14 -32 -36 -36 -29 -17 33 -15 41 11 39 15 -2
26 -6 25 -10z m293 -13 c7 -10 13 -29 13 -43 l0 -25 -11 23 c-15 30 -40 29
-34 -2 3 -16 -3 -31 -15 -42 -23 -21 -35 -13 -20 15 19 34 -6 35 -55 1 -26
-17 -48 -29 -51 -26 -2 2 8 12 23 23 14 10 45 35 68 55 46 42 63 46 82 21z
m248 9 c8 -13 -49 -70 -74 -74 -36 -5 -35 19 2 38 18 9 37 23 41 30 9 16 23
18 31 6z m76 -2 c0 -5 8 -10 17 -10 9 0 14 -3 10 -6 -8 -8 -47 5 -47 17 0 5 5
9 10 9 6 0 10 -4 10 -10z m-777 -49 c-12 -13 -23 -17 -33 -11 -11 7 -9 12 11
29 30 24 48 10 22 -18z m197 24 c0 -2 -10 -10 -22 -16 -21 -11 -22 -11 -9 4
13 16 31 23 31 12z m-125 -65 c-3 -5 -11 -10 -16 -10 -6 0 -7 5 -4 10 3 6 11
10 16 10 6 0 7 -4 4 -10z m-65 -30 c-40 -22 -54 -25 -45 -9 8 12 43 28 65 28
8 0 -1 -8 -20 -19z m-190 -34 c-6 -8 -18 -12 -26 -9 -19 7 -7 23 18 23 17 0
18 -3 8 -14z m-1030 -110 c0 -2 -7 -6 -15 -10 -8 -3 -15 -1 -15 4 0 6 7 10 15
10 8 0 15 -2 15 -4z m280 0 c0 -2 -7 -7 -16 -10 -8 -3 -12 -2 -9 4 6 10 25 14
25 6z m280 0 c0 -3 -4 -8 -10 -11 -5 -3 -10 -1 -10 4 0 6 5 11 10 11 6 0 10
-2 10 -4z m280 0 c0 -3 -4 -8 -10 -11 -5 -3 -10 -1 -10 4 0 6 5 11 10 11 6 0
10 -2 10 -4z m280 0 c0 -3 -4 -8 -10 -11 -5 -3 -10 -1 -10 4 0 6 5 11 10 11 6
0 10 -2 10 -4z m287 -2 c-3 -3 -12 -4 -19 -1 -8 3 -5 6 6 6 11 1 17 -2 13 -5z
m280 0 c-3 -3 -12 -4 -19 -1 -8 3 -5 6 6 6 11 1 17 -2 13 -5z m-1677 -24 c0
-5 -5 -10 -11 -10 -5 0 -7 5 -4 10 3 6 8 10 11 10 2 0 4 -4 4 -10z m1130 0 c0
-5 -5 -10 -11 -10 -5 0 -7 5 -4 10 3 6 8 10 11 10 2 0 4 -4 4 -10z m-1214 -15
c-21 -16 -32 -13 -21 4 3 6 14 11 23 11 15 -1 15 -2 -2 -15z m139 5 c-3 -5
-11 -10 -16 -10 -6 0 -7 5 -4 10 3 6 11 10 16 10 6 0 7 -4 4 -10z m150 0 c-3
-5 -13 -10 -21 -10 -8 0 -12 5 -9 10 3 6 13 10 21 10 8 0 12 -4 9 -10z m280 0
c-3 -5 -11 -10 -16 -10 -6 0 -7 5 -4 10 3 6 11 10 16 10 6 0 7 -4 4 -10z m140
0 c-3 -5 -11 -10 -16 -10 -6 0 -7 5 -4 10 3 6 11 10 16 10 6 0 7 -4 4 -10z
m140 0 c-3 -5 -11 -10 -16 -10 -6 0 -7 5 -4 10 3 6 11 10 16 10 6 0 7 -4 4
-10z m140 0 c-3 -5 -11 -10 -16 -10 -6 0 -7 5 -4 10 3 6 11 10 16 10 6 0 7 -4
4 -10z m140 0 c-3 -5 -11 -10 -16 -10 -6 0 -7 5 -4 10 3 6 11 10 16 10 6 0 7
-4 4 -10z m140 0 c-3 -5 -11 -10 -16 -10 -6 0 -7 5 -4 10 3 6 11 10 16 10 6 0
7 -4 4 -10z m139 -4 c-21 -15 -30 -14 -19 3 3 6 14 11 23 11 13 0 13 -2 -4
-14z m146 10 c0 -3 -4 -8 -10 -11 -5 -3 -10 -1 -10 4 0 6 5 11 10 11 6 0 10
-2 10 -4z m145 -6 c-3 -5 -11 -10 -16 -10 -6 0 -7 5 -4 10 3 6 11 10 16 10 6
0 7 -4 4 -10z m145 6 c0 -2 -7 -7 -16 -10 -8 -3 -12 -2 -9 4 6 10 25 14 25 6z
m130 -11 c-7 -9 -15 -13 -17 -11 -7 7 7 26 19 26 6 0 6 -6 -2 -15z m140 5 c0
-5 -5 -10 -11 -10 -5 0 -7 5 -4 10 3 6 8 10 11 10 2 0 4 -4 4 -10z m145 0 c-3
-5 -11 -10 -16 -10 -6 0 -7 5 -4 10 3 6 11 10 16 10 6 0 7 -4 4 -10z m140 0
c-3 -5 -11 -10 -16 -10 -6 0 -7 5 -4 10 3 6 11 10 16 10 6 0 7 -4 4 -10z m135
-5 c-7 -9 -15 -13 -17 -11 -7 7 7 26 19 26 6 0 6 -6 -2 -15z m145 5 c-3 -5
-11 -10 -16 -10 -6 0 -7 5 -4 10 3 6 11 10 16 10 6 0 7 -4 4 -10z m140 0 c-3
-5 -11 -10 -16 -10 -6 0 -7 5 -4 10 3 6 11 10 16 10 6 0 7 -4 4 -10z m140 0
c-3 -5 -11 -10 -16 -10 -6 0 -7 5 -4 10 3 6 11 10 16 10 6 0 7 -4 4 -10z
m-2865 -34 c0 -2 -7 -7 -16 -10 -8 -3 -12 -2 -9 4 6 10 25 14 25 6z m135 -6
c-3 -5 -14 -10 -23 -10 -15 0 -15 2 -2 10 20 13 33 13 25 0z m135 0 c0 -5 -5
-10 -11 -10 -5 0 -7 5 -4 10 3 6 8 10 11 10 2 0 4 -4 4 -10z m145 0 c-3 -5
-11 -10 -16 -10 -6 0 -7 5 -4 10 3 6 11 10 16 10 6 0 7 -4 4 -10z m140 0 c-3
-5 -11 -10 -16 -10 -6 0 -7 5 -4 10 3 6 11 10 16 10 6 0 7 -4 4 -10z m140 0
c-3 -5 -11 -10 -16 -10 -6 0 -7 5 -4 10 3 6 11 10 16 10 6 0 7 -4 4 -10z m140
0 c-3 -5 -11 -10 -16 -10 -6 0 -7 5 -4 10 3 6 11 10 16 10 6 0 7 -4 4 -10z
m140 0 c-3 -5 -11 -10 -16 -10 -6 0 -7 5 -4 10 3 6 11 10 16 10 6 0 7 -4 4
-10z m285 0 c0 -5 -5 -10 -11 -10 -5 0 -7 5 -4 10 3 6 8 10 11 10 2 0 4 -4 4
-10z m140 0 c0 -5 -5 -10 -11 -10 -5 0 -7 5 -4 10 3 6 8 10 11 10 2 0 4 -4 4
-10z m145 0 c-3 -5 -14 -10 -23 -10 -15 0 -15 2 -2 10 20 13 33 13 25 0z m140
0 c-3 -5 -11 -10 -16 -10 -6 0 -7 5 -4 10 3 6 11 10 16 10 6 0 7 -4 4 -10z
m135 0 c0 -5 -5 -10 -11 -10 -5 0 -7 5 -4 10 3 6 8 10 11 10 2 0 4 -4 4 -10z
m285 0 c-3 -5 -11 -10 -16 -10 -6 0 -7 5 -4 10 3 6 11 10 16 10 6 0 7 -4 4
-10z m145 6 c0 -3 -4 -8 -10 -11 -5 -3 -10 -1 -10 4 0 6 5 11 10 11 6 0 10 -2
10 -4z m130 -6 c0 -5 -5 -10 -11 -10 -5 0 -7 5 -4 10 3 6 8 10 11 10 2 0 4 -4
4 -10z m145 0 c-3 -5 -11 -10 -16 -10 -6 0 -7 5 -4 10 3 6 11 10 16 10 6 0 7
-4 4 -10z m140 0 c-3 -5 -11 -10 -16 -10 -6 0 -7 5 -4 10 3 6 11 10 16 10 6 0
7 -4 4 -10z m-2345 -132 c1 -35 56 -222 63 -212 3 5 12 35 20 67 15 58 10 101
-15 134 -14 17 -1 33 28 33 15 0 24 -6 24 -16 0 -14 44 -181 56 -214 10 -25
56 161 49 198 -5 30 -4 32 21 32 21 0 25 -3 19 -17 -8 -18 -15 -47 -59 -217
-35 -137 -37 -138 -68 -19 -11 43 -23 82 -28 87 -8 8 -21 -28 -44 -127 -13
-56 -27 -62 -39 -15 -23 94 -69 255 -77 270 -16 29 -12 38 20 38 24 0 30 -4
30 -22z m973 -55 c-4 -49 -2 -77 5 -82 6 -3 33 -6 59 -6 l48 1 3 64 c2 35 -2
68 -7 73 -19 19 -12 27 22 27 l32 0 -3 -161 c-2 -106 0 -165 7 -172 19 -19 12
-27 -21 -23 l-32 3 3 82 3 81 -61 0 -61 0 0 -64 c0 -36 5 -68 10 -71 22 -13 9
-30 -22 -29 -23 1 -32 6 -28 15 8 22 5 292 -4 315 -7 18 -4 21 22 22 l30 1 -5
-76z m-503 46 c0 -5 -7 -9 -15 -9 -17 0 -20 -25 -5 -35 6 -3 10 -1 10 5 0 6 5
8 11 5 6 -4 13 3 16 15 6 22 7 22 20 5 12 -18 13 -18 13 3 0 25 7 26 44 12 17
-6 26 -6 26 0 0 6 12 10 26 10 20 0 25 -4 20 -16 -3 -9 -6 -24 -6 -35 0 -10
-4 -19 -9 -19 -4 0 -6 11 -3 25 5 29 -3 32 -25 9 -14 -13 -14 -17 -2 -25 9 -6
-4 -9 -38 -9 -36 0 -53 4 -53 13 0 8 -2 9 -8 1 -4 -7 -25 -11 -48 -11 -22 0
-45 -3 -51 -6 -7 -4 -14 -3 -17 2 -3 5 -26 6 -51 3 -44 -5 -45 -4 -45 25 0 26
4 31 25 31 20 0 25 -6 25 -25 0 -14 4 -21 10 -18 6 3 10 15 10 26 0 24 20 26
21 2 0 -15 2 -15 8 2 7 15 18 21 50 21 22 1 41 -2 41 -7z m778 -17 c2 -12 8
-22 13 -22 5 0 9 -4 9 -10 0 -5 -13 -10 -29 -10 -25 0 -28 3 -23 26 4 20 1 25
-9 22 -8 -3 -13 -15 -12 -27 2 -11 -2 -21 -7 -21 -6 0 -10 9 -10 19 0 11 -3
27 -6 35 -5 14 0 16 32 14 32 -3 40 -8 42 -26z m137 10 c-3 -8 -5 -22 -5 -33
0 -27 -18 -24 -22 3 -2 13 -11 24 -22 26 -15 3 -18 -1 -14 -22 4 -20 1 -26
-11 -26 -10 0 -22 5 -29 12 -15 15 -16 48 -2 48 6 0 10 -5 10 -11 0 -6 8 -5
19 3 26 18 83 18 76 0z m-608 -52 c12 -25 4 -61 -16 -68 -10 -3 -10 0 -1 18 9
17 8 26 -4 45 -19 29 -20 38 -3 33 6 -3 17 -15 24 -28z m-49 -75 c32 -81 79
-156 100 -162 22 -5 22 -7 8 -22 -27 -26 -66 3 -103 79 -39 80 -50 139 -31
171 13 24 13 24 16 -11 1 -19 6 -44 10 -55z m-369 9 c3 -16 1 -17 -13 -5 -19
16 -21 34 -3 29 6 -3 14 -13 16 -24z m213 3 c7 -12 1 -27 -10 -27 -4 0 -15 12
-26 26 l-19 26 24 -7 c13 -4 27 -12 31 -18z m813 9 c12 -9 16 -19 11 -32 -7
-18 -8 -17 -26 6 -31 40 -23 54 15 26z m81 -37 c-4 -24 -2 -39 4 -39 16 0 101
-123 92 -132 -10 -10 -42 0 -42 13 0 14 -44 79 -53 79 -4 0 -7 -21 -5 -47 2
-34 -1 -48 -10 -48 -10 0 -13 25 -13 105 0 58 0 108 0 112 1 4 8 5 17 1 13 -5
15 -14 10 -44z m75 28 c-13 -13 -26 -3 -16 12 3 6 11 8 17 5 6 -4 6 -10 -1
-17z m85 15 c6 -4 21 -38 34 -77 12 -38 26 -74 30 -78 10 -12 0 -49 -13 -44
-9 3 -61 133 -74 185 -5 22 3 28 23 14z m427 -72 c21 -38 42 -72 47 -75 13 -8
13 -65 1 -65 -5 0 -12 8 -16 18 -3 9 -29 54 -56 100 -47 77 -55 108 -26 96 7
-2 29 -36 50 -74z m60 74 c9 -9 -4 -35 -14 -28 -5 3 -9 12 -9 20 0 14 12 19
23 8z m-1833 -49 c0 -29 4 -45 13 -45 8 0 8 -3 -2 -9 -11 -7 -13 -23 -8 -66 5
-49 4 -56 -11 -53 -14 3 -18 20 -22 111 -5 97 -3 107 13 107 14 0 17 -9 17
-45z m155 -65 c0 -80 -4 -105 -13 -105 -10 0 -14 27 -15 108 -2 91 0 107 13
105 12 -3 15 -23 15 -108z m787 8 c4 -114 3 -119 -15 -112 -17 6 -17 214 0
214 8 0 13 -32 15 -102z m77 65 c-10 -21 -19 -48 -19 -60 0 -34 25 -89 46
-101 11 -6 15 -14 11 -18 -16 -16 -62 21 -74 59 -15 45 -4 108 23 138 27 30
33 22 13 -18z m471 -63 c0 -55 0 -103 0 -107 0 -5 -6 -8 -12 -8 -9 0 -15 30
-20 100 -6 106 -5 115 18 115 11 0 14 -20 14 -100z m151 -11 c30 -96 33 -119
10 -104 -15 9 -41 72 -41 99 0 11 -7 34 -15 50 -15 29 -12 71 5 61 5 -3 23
-50 41 -106z m-1377 11 c38 -42 43 -59 26 -91 -15 -27 -28 -24 -22 7 3 19 -4
34 -30 62 -43 45 -51 67 -36 95 11 22 12 22 19 -6 4 -15 24 -46 43 -67z m286
59 c0 -6 -5 -20 -12 -32 l-12 -22 -6 25 c-4 14 -5 28 -3 33 6 11 33 8 33 -4z
m-150 -65 c-14 -37 -12 -52 10 -74 12 -12 26 -17 37 -13 16 6 16 5 4 -10 -18
-23 -47 -21 -72 4 -17 17 -20 29 -16 56 6 35 23 63 38 63 5 0 4 -12 -1 -26z
m-330 1 c0 -8 -7 -15 -15 -15 -8 0 -15 7 -15 15 0 8 7 15 15 15 8 0 15 -7 15
-15z m1510 -25 c0 -5 -7 -10 -15 -10 -8 0 -15 5 -15 10 0 6 7 10 15 10 8 0 15
-4 15 -10z m-1355 -60 c18 -20 17 -20 -8 -20 -20 0 -27 5 -27 20 0 11 4 20 8
20 5 0 17 -9 27 -20z m1120 -8 c0 -18 -20 -15 -23 4 -3 10 1 15 10 12 7 -3 13
-10 13 -16z m205 -16 c-14 -14 -24 0 -16 21 6 15 8 15 16 3 6 -9 5 -19 0 -24z
m180 0 c-13 -13 -35 7 -25 24 5 8 11 8 21 -1 10 -8 12 -15 4 -23z m-1640 15
c0 -14 -18 -23 -30 -16 -6 4 -8 11 -5 16 8 12 35 12 35 0z"/>
<path d="M1680 4740 c0 -5 5 -10 10 -10 6 0 10 5 10 10 0 6 -4 10 -10 10 -5 0
-10 -4 -10 -10z"/>
<path d="M1941 4754 c0 -11 3 -14 6 -6 3 7 2 16 -1 19 -3 4 -6 -2 -5 -13z"/>
<path d="M2031 4744 c0 -11 3 -14 6 -6 3 7 2 16 -1 19 -3 4 -6 -2 -5 -13z"/>
<path d="M1890 4740 c0 -5 5 -10 10 -10 6 0 10 5 10 10 0 6 -4 10 -10 10 -5 0
-10 -4 -10 -10z"/>
<path d="M1101 4474 c0 -11 3 -14 6 -6 3 7 2 16 -1 19 -3 4 -6 -2 -5 -13z"/>
<path d="M1683 4428 c-28 -14 -29 -39 -3 -63 25 -23 39 -12 17 13 -15 16 -15
20 -1 40 8 12 14 22 12 21 -2 0 -13 -5 -25 -11z"/>
<path d="M1774 4424 c3 -9 6 -28 6 -42 1 -23 2 -25 11 -9 6 9 15 15 20 11 6
-3 3 8 -5 25 -17 31 -43 44 -32 15z"/>
<path d="M1982 4428 c-17 -17 -15 -55 4 -62 9 -3 12 -2 9 5 -10 15 3 59 17 59
6 0 17 -8 24 -17 7 -10 16 -15 20 -11 11 12 -16 38 -40 38 -12 0 -27 -5 -34
-12z"/>
<path d="M1465 4400 c0 -25 2 -27 14 -15 7 7 11 21 8 29 -10 26 -22 18 -22
-14z"/>
<path d="M1010 3634 l0 -76 32 6 c47 9 68 33 68 76 0 45 -24 70 -68 70 l-32 0
0 -76z"/>
<path d="M765 3638 c-20 -55 -35 -102 -35 -108 0 -11 80 -18 86 -8 5 8 -35
128 -43 128 -2 0 -6 -6 -8 -12z"/>
<path d="M2224 3707 c-2 -7 -3 -80 -2 -162 l3 -150 29 -3 c16 -2 32 2 37 10 5
7 9 79 9 159 0 125 -2 148 -16 153 -26 10 -54 7 -60 -7z"/>
<path d="M1312 3628 c-16 -16 -15 -33 4 -49 14 -11 18 -10 30 5 9 13 10 24 3
37 -11 22 -20 24 -37 7z"/>
<path d="M1819 3295 c-1 -14 -2 -30 -3 -37 -1 -6 5 -13 12 -15 8 -3 12 8 12
36 0 44 -19 58 -21 16z"/>
<path d="M1824 3053 c-14 -9 -20 -21 -17 -34 8 -27 17 -24 31 13 14 38 13 40
-14 21z"/>
<path d="M1832 2960 c0 -14 2 -19 5 -12 2 6 2 18 0 25 -3 6 -5 1 -5 -13z"/>
<path d="M1477 2923 c-4 -3 -7 -11 -7 -17 0 -6 5 -5 12 2 6 6 9 14 7 17 -3 3
-9 2 -12 -2z"/>
<path d="M1830 2914 c0 -8 5 -12 10 -9 6 4 18 1 26 -6 17 -14 29 -6 21 16 -8
20 -57 20 -57 -1z"/>
<path d="M1727 2890 c3 -11 9 -20 14 -20 5 0 9 9 9 20 0 11 -6 20 -14 20 -9 0
-12 -7 -9 -20z"/>
<path d="M1900 2840 c0 -5 5 -10 10 -10 6 0 10 -8 10 -17 1 -16 2 -16 15 1 12
16 12 22 2 28 -17 11 -37 10 -37 -2z"/>
<path d="M1741 2804 c0 -11 3 -14 6 -6 3 7 2 16 -1 19 -3 4 -6 -2 -5 -13z"/>
<path d="M1873 2803 c-7 -3 -13 -21 -13 -41 0 -36 0 -36 16 -14 17 25 15 61
-3 55z"/>
<path d="M1710 2748 c0 -4 7 -8 15 -8 8 0 15 4 15 8 0 5 -7 9 -15 9 -8 0 -15
-4 -15 -9z"/>
<path d="M1575 2690 c-19 -8 -19 -9 3 -9 12 -1 22 4 22 9 0 6 -1 10 -2 9 -2 0
-12 -4 -23 -9z"/>
<path d="M1515 2679 c-12 -19 5 -23 22 -6 16 16 16 17 1 17 -9 0 -20 -5 -23
-11z"/>
<path d="M1901 2213 c0 -6 -4 -20 -7 -30 -5 -14 -4 -15 5 -7 7 7 11 20 8 30
-3 11 -5 14 -6 7z"/>
<path d="M2710 3175 c0 -19 5 -35 10 -35 6 0 10 9 10 19 0 11 3 26 6 35 4 11
1 16 -10 16 -12 0 -16 -10 -16 -35z"/>
<path d="M2250 2245 c0 -11 32 -55 40 -55 15 0 -1 36 -21 48 -10 7 -19 10 -19
7z"/>
<path d="M1360 2189 c0 -5 5 -7 10 -4 6 3 10 8 10 11 0 2 -4 4 -10 4 -5 0 -10
-5 -10 -11z"/>
<path d="M1408 2163 c7 -3 16 -2 19 1 4 3 -2 6 -13 5 -11 0 -14 -3 -6 -6z"/>
<path d="M595 2210 c6 -8 10 -18 10 -22 0 -14 15 -20 15 -6 0 9 -8 22 -17 29
-15 12 -16 12 -8 -1z"/>
<path d="M1165 1210 c4 -6 11 -8 16 -5 14 9 11 15 -7 15 -8 0 -12 -5 -9 -10z"/>
<path d="M1122 1167 c-9 -10 -4 -13 22 -15 23 -2 36 3 40 13 7 19 -46 21 -62
2z"/>
<path d="M1030 450 c0 -5 5 -10 10 -10 6 0 10 5 10 10 0 6 -4 10 -10 10 -5 0
-10 -4 -10 -10z"/>
<path d="M11 2518 c1 -95 4 -162 6 -148 5 29 23 51 23 30 1 -33 39 58 40 93 0
21 5 47 10 57 6 11 8 31 4 45 -6 24 -7 24 -19 8 -12 -16 -14 -12 -21 35 -5 42
-10 52 -25 52 -18 0 -19 -10 -18 -172z"/>
</g>
</svg>
